<?xml version="1.0" encoding="UTF-8"?>
<svg version="1.1" xmlns="http://www.w3.org/2000/svg" width="2400" height="2449">
<path d="M0 0 C2.68086604 0.23133779 5.36251756 0.45005362 8.04467773 0.66583252 C100.0226659 8.13189038 190.48375825 26.37565379 397.64038086 100.22784424 C398.67888184 100.69561279 399.71738281 101.16338135 400.78735352 101.64532471 C429.86776919 114.78824219 458.73462487 128.76969819 486.2980957 144.87530518 C489.23384227 146.57053511 492.20642999 148.19163245 495.18481445 149.81036377 C550.91308505 180.1695105 604.01734624 217.49297564 652.94458008 257.83184814 C655.39642347 259.85022426 657.86368648 261.8495783 660.32788086 263.85284424 C664.86480163 267.56672541 669.34282509 271.34656215 673.80737305 275.14678955 C677.189268 278.02009876 680.61528561 280.82666655 684.07788086 283.60284424 C689.75956022 288.22128536 695.06907584 293.20198271 700.40600586 298.20831299 C704.07047477 301.64295827 707.82362236 304.96362316 711.64038086 308.22784424 C712.6477832 309.09409424 712.6477832 309.09409424 713.67553711 309.97784424 C715.32817393 311.39720628 716.98391818 312.81294903 718.64038086 314.22784424 C717.08102453 317.96846236 714.76983408 320.3425006 711.91381836 323.18487549 C711.44730865 323.65092697 710.98079895 324.11697845 710.50015259 324.59715271 C709.51231346 325.58197769 708.52205191 326.56437805 707.52954102 327.54449463 C706.03605039 329.01992466 704.55052336 330.50300163 703.06616211 331.98760986 C699.0689548 335.9644626 695.06229525 339.8858457 690.79125977 343.57037354 C686.57196746 347.23527747 682.62915583 351.12846575 678.70288086 355.10284424 C677.9785083 355.83100342 677.25413574 356.5591626 676.5078125 357.30938721 C674.21619783 359.6131007 671.92787433 361.92003898 669.64038086 364.22784424 C666.62253005 367.27249203 663.6012467 370.31367391 660.57788086 373.35284424 C659.90055908 374.03846436 659.2232373 374.72408447 658.52539062 375.43048096 C655.3266176 378.64540343 652.08903237 381.75172517 648.65405273 384.71417236 C644.39436879 388.38969182 640.43739431 392.32141184 636.48413086 396.32159424 C635.73756226 397.07194946 634.99099365 397.82230469 634.22180176 398.59539795 C631.85886061 400.97044344 629.49920716 403.3487124 627.14038086 405.72784424 C624.0287744 408.86623641 620.91374331 412.00117168 617.79663086 415.13409424 C617.0974353 415.84158813 616.39823975 416.54908203 615.67785645 417.27801514 C611.79233189 421.18257387 607.79711949 424.86967779 603.62658691 428.4664917 C600.17159722 431.53035049 596.94706355 434.81891481 593.70288086 438.10284424 C592.9785083 438.83100342 592.25413574 439.5591626 591.5078125 440.30938721 C589.21619783 442.6131007 586.92787433 444.92003898 584.64038086 447.22784424 C581.62253005 450.27249203 578.6012467 453.31367391 575.57788086 456.35284424 C574.90055908 457.03846436 574.2232373 457.72408447 573.52539062 458.43048096 C570.3266176 461.64540343 567.08903237 464.75172517 563.65405273 467.71417236 C559.39436879 471.38969182 555.43739431 475.32141184 551.48413086 479.32159424 C550.73756226 480.07194946 549.99099365 480.82230469 549.22180176 481.59539795 C546.85886061 483.97044344 544.49920716 486.3487124 542.14038086 488.72784424 C539.0287744 491.86623641 535.91374331 495.00117168 532.79663086 498.13409424 C532.0974353 498.84158813 531.39823975 499.54908203 530.67785645 500.27801514 C526.79233189 504.18257387 522.79711949 507.86967779 518.62658691 511.4664917 C515.17159722 514.53035049 511.94706355 517.81891481 508.70288086 521.10284424 C507.9785083 521.83100342 507.25413574 522.5591626 506.5078125 523.30938721 C504.21619783 525.6131007 501.92787433 527.92003898 499.64038086 530.22784424 C496.62253005 533.27249203 493.6012467 536.31367391 490.57788086 539.35284424 C489.90055908 540.03846436 489.2232373 540.72408447 488.52539062 541.43048096 C484.6936691 545.28154746 480.74652037 548.91057162 476.63427734 552.45880127 C473.17729509 555.5259365 469.94965021 558.81629646 466.70288086 562.10284424 C465.9785083 562.83100342 465.25413574 563.5591626 464.5078125 564.30938721 C462.21619783 566.6131007 459.92787433 568.92003898 457.64038086 571.22784424 C454.62253005 574.27249203 451.6012467 577.31367391 448.57788086 580.35284424 C447.90055908 581.03846436 447.2232373 581.72408447 446.52539062 582.43048096 C443.3266176 585.64540343 440.08903237 588.75172517 436.65405273 591.71417236 C432.39436879 595.38969182 428.43739431 599.32141184 424.48413086 603.32159424 C423.73756226 604.07194946 422.99099365 604.82230469 422.22180176 605.59539795 C419.85886061 607.97044344 417.49920716 610.3487124 415.14038086 612.72784424 C412.0287744 615.86623641 408.91374331 619.00117168 405.79663086 622.13409424 C405.0974353 622.84158813 404.39823975 623.54908203 403.67785645 624.27801514 C399.7197846 628.25547655 395.65245768 632.0287586 391.40270996 635.69259644 C389.3044155 637.52051947 387.31846134 639.43577976 385.35913086 641.41143799 C384.31499023 642.4604126 384.31499023 642.4604126 383.24975586 643.53057861 C382.20561523 644.5872876 382.20561523 644.5872876 381.14038086 645.66534424 C380.04983398 646.76265869 380.04983398 646.76265869 378.93725586 647.88214111 C377.16928587 649.66174248 375.40371708 651.44365342 373.64038086 653.22784424 C370.75123031 651.91395085 368.63521431 650.48713559 366.35522461 648.28643799 C365.7482373 647.70764893 365.14125 647.12885986 364.51586914 646.53253174 C363.87633301 645.91635986 363.23679687 645.30018799 362.57788086 644.66534424 C357.41009626 639.76706439 352.18602891 635.05833184 346.61694336 630.61456299 C344.33766108 628.78694951 342.08869798 626.93765646 339.85131836 625.05987549 C329.42769786 616.33043191 318.67746682 608.16417916 307.64038086 600.22784424 C306.92382324 599.70980225 306.20726562 599.19176025 305.46899414 598.65802002 C221.45696421 538.0205405 123.71056088 498.36695251 -48.35961914 473.22784424 C-50.14360107 473.0842749 -50.14360107 473.0842749 -51.96362305 472.93780518 C-67.39959847 471.83734851 -82.89215006 471.98056589 -98.35961914 471.97784424 C-99.12690716 471.97754967 -99.89419518 471.9772551 -100.68473434 471.9769516 C-125.67781519 471.9754039 -150.50247683 472.38509329 -175.35961914 475.22784424 C-176.66660767 475.37703308 -176.66660767 475.37703308 -178 475.52923584 C-257.33125928 484.71224136 -334.58594522 505.64195628 -428.35961914 550.22784424 C-429.87628174 550.9831543 -429.87628174 550.9831543 -431.42358398 551.75372314 C-447.51680684 559.82323636 -462.98937594 568.86823538 -478.35961914 578.22784424 C-479.43518066 578.88252686 -480.51074219 579.53720947 -481.61889648 580.21173096 C-494.53546275 588.10639636 -507.14051659 596.29195155 -519.35961914 605.22784424 C-520.11017578 605.77263428 -520.86073242 606.31742432 -521.6340332 606.87872314 C-536.95349943 618.00198775 -552.07016462 629.38539597 -566.42993164 641.73175049 C-569.13655647 644.03779484 -571.89137654 646.26232677 -574.67211914 648.47784424 C-580.13862048 652.92137457 -585.24722261 657.71086877 -590.35107422 662.56085205 C-593.87126558 665.90590728 -597.42957989 669.18906507 -601.06274414 672.41143799 C-606.70366287 677.46859035 -612.06574631 682.78275 -617.41064453 688.14849854 C-619.0520171 689.79525828 -620.69870733 691.43656519 -622.34594727 693.07745361 C-627.34973422 698.07808506 -632.27058152 703.10805252 -636.86767578 708.49078369 C-639.23939638 711.25216351 -641.74480803 713.88588636 -644.23461914 716.54034424 C-648.71382073 721.35539867 -652.96731684 726.29316268 -657.08618164 731.42315674 C-659.15139762 733.97096615 -661.25937599 736.47077873 -663.39233398 738.96148682 C-668.82886273 745.31355195 -674.01431696 751.81526188 -679.04858398 758.49151611 C-680.41323122 760.2988478 -681.78656786 762.09936238 -683.16040039 763.89971924 C-701.91947362 788.58221468 -718.70843722 814.48021078 -734.35961914 841.22784424 C-734.9276123 842.19721924 -735.49560547 843.16659424 -736.08081055 844.16534424 C-781.66904074 922.49143101 -810.90170712 1008.58953557 -835.92211914 1197.66534424 C-835.9429657 1198.34603973 -835.96381226 1199.02673523 -835.98529053 1199.72805786 C-836.28384122 1209.5651162 -836.5725325 1219.38628585 -836.35961914 1229.22784424 C-836.3417334 1230.20253662 -836.32384766 1231.177229 -836.30541992 1232.18145752 C-834.65601192 1314.32679173 -819.12160796 1394.24388122 -773.35961914 1521.22784424 C-773.09491821 1521.84385498 -772.83021729 1522.45986572 -772.55749512 1523.09454346 C-761.42461316 1548.95440071 -749.10044049 1574.18654659 -734.92895508 1598.52471924 C-733.41314649 1601.13564529 -731.91991228 1603.7583661 -730.42993164 1606.38409424 C-723.79205205 1617.96604967 -716.5765531 1629.12687214 -709.17211914 1640.22784424 C-708.47966599 1641.26675812 -708.47966599 1641.26675812 -707.77322388 1642.32666016 C-698.99409982 1655.47279763 -689.91024607 1668.36236799 -680.29711914 1680.91534424 C-679.60593994 1681.81962158 -678.91476074 1682.72389893 -678.20263672 1683.65557861 C-673.37448694 1689.95163573 -668.47555259 1696.16207755 -663.35961914 1702.22784424 C-662.51399414 1703.23460205 -661.66836914 1704.24135986 -660.79711914 1705.27862549 C-658.47179108 1708.04094477 -656.13366853 1710.79216006 -653.79223633 1713.54083252 C-652.37362759 1715.21134827 -650.96368113 1716.88885466 -649.55493164 1718.56768799 C-636.92107465 1733.56200163 -623.19893722 1747.48024142 -609.35961914 1761.35284424 C-608.41132736 1762.30515427 -608.41132736 1762.30515427 -607.44387817 1763.27670288 C-600.92501801 1769.8165053 -594.40410004 1776.24948617 -587.35961914 1782.22784424 C-585.58391693 1783.8475224 -583.81253607 1785.47196142 -582.04711914 1787.10284424 C-577.55948482 1791.19541859 -572.95031686 1795.08055258 -568.22290039 1798.89190674 C-565.70607616 1800.94519581 -563.23498235 1803.04254238 -560.7746582 1805.16290283 C-553.5959606 1811.33325808 -546.12354369 1817.0336591 -538.50170898 1822.64337158 C-536.34636935 1824.23764491 -534.20549042 1825.84980181 -532.06665039 1827.46612549 C-455.4604501 1885.06350975 -365.92738286 1927.31459168 27.84451294 1961.67041016 C70.50748799 1955.5633178 112.72944337 1945.77346964 153.64038086 1932.22784424 C154.7940918 1931.85224365 155.94780273 1931.47664307 157.13647461 1931.08966064 C192.44067444 1919.55728045 227.03833688 1905.03689029 259.64038086 1887.22784424 C260.6600293 1886.67612549 261.67967773 1886.12440674 262.73022461 1885.55596924 C284.16078038 1873.94459627 304.73955731 1861.2975125 324.64038086 1847.22784424 C325.71449219 1846.47253418 325.71449219 1846.47253418 326.81030273 1845.70196533 C337.1613496 1838.4055097 347.13866245 1830.7685356 356.88305664 1822.68096924 C359.40971453 1820.59168503 361.96505993 1818.53813155 364.51538086 1816.47784424 C368.8113957 1812.96116642 372.96102023 1809.30950141 377.05834961 1805.56378174 C379.17047421 1803.65296402 381.30344348 1801.77583453 383.45288086 1799.90753174 C387.53159558 1796.3461058 391.5078175 1792.68629143 395.45288086 1788.97784424 C396.14502686 1788.32743164 396.83717285 1787.67701904 397.55029297 1787.00689697 C405.22990442 1779.76357649 412.85019924 1772.48314714 419.70678711 1764.44268799 C421.73905129 1762.11482175 423.8336559 1759.85685732 425.94311523 1757.59918213 C431.78373078 1751.34410054 437.28618266 1744.9075117 442.64038086 1738.22784424 C443.64674518 1737.00009326 444.65465807 1735.77361058 445.66381836 1734.54815674 C509.14871299 1657.32698789 555.17694385 1563.36384178 571.08129883 1464.31207275 C571.81569833 1460.26068896 572.74718953 1456.2472052 573.64038086 1452.22784424 C350.89038086 1452.22784424 128.14038086 1452.22784424 -101.35961914 1452.22784424 C-101.35961914 1302.07784424 -101.35961914 1151.92784424 -101.35961914 997.22784424 C278.14038086 997.22784424 657.64038086 997.22784424 1048.64038086 997.22784424 C1049.98359004 1000.58586718 1050.95959585 1003.18038112 1051.67431641 1006.60772705 C1051.94088799 1007.87437447 1051.94088799 1007.87437447 1052.21284485 1009.16661072 C1052.39904892 1010.07884903 1052.58525299 1010.99108734 1052.77709961 1011.93096924 C1053.07749397 1013.38470695 1053.07749397 1013.38470695 1053.38395691 1014.86781311 C1054.04039434 1018.0695065 1054.68603432 1021.27319487 1055.32788086 1024.47784424 C1055.54970032 1025.58384979 1055.77151978 1026.68985535 1056.00006104 1027.82937622 C1065.46820219 1075.37253843 1071.21779032 1123.62946716 1073.53323364 1172.05123901 C1073.60727623 1173.55535157 1073.6860929 1175.05923398 1073.76876831 1176.56289673 C1074.9144572 1197.59850026 1074.82782339 1218.65260037 1074.82568359 1239.71246338 C1074.825603 1243.8970783 1074.83245147 1248.08158217 1074.84619141 1252.26617432 C1074.96741613 1289.83101297 1073.8750655 1327.27217583 1070.89038086 1364.72784424 C1070.80801178 1365.78095795 1070.7256427 1366.83407166 1070.64077759 1367.9190979 C1064.93798718 1440.17423283 1053.62468572 1511.77269532 1036.64038086 1582.22784424 C1036.44248962 1583.05099121 1036.24459839 1583.87413818 1036.04071045 1584.722229 C1016.71762711 1664.89174568 989.0609616 1742.77942053 953.64038086 1817.22784424 C953.06350758 1818.44380342 952.48668557 1819.65978693 951.90991211 1820.87579346 C940.37642724 1845.16229789 928.08419265 1868.93841734 914.64038086 1892.22784424 C914.31513428 1892.79219177 913.9898877 1893.35653931 913.65478516 1893.93798828 C904.03832364 1910.61952301 894.1908828 1927.11451635 883.64038086 1943.22784424 C883.07786621 1944.08748779 882.51535156 1944.94713135 881.93579102 1945.83282471 C865.43865144 1970.96169647 848.13023097 1995.5236766 829.64038086 2019.22784424 C829.22256348 2019.76651123 828.80474609 2020.30517822 828.37426758 2020.86016846 C814.75739139 2038.41433141 800.57551777 2055.55535884 785.64428711 2072.00909424 C783.82726104 2074.02092817 782.04093694 2076.05444857 780.26538086 2078.10284424 C775.49437532 2083.57257828 770.56278574 2088.89491906 765.64038086 2094.22784424 C764.87596931 2095.05760521 764.87596931 2095.05760521 764.09611511 2095.90412903 C755.65312025 2105.05813035 747.02634786 2114.00125431 738.20629883 2122.79229736 C736.24172885 2124.75143079 734.28266638 2126.71596068 732.32397461 2128.68096924 C720.98491194 2140.0253935 720.98491194 2140.0253935 715.21801758 2144.86456299 C713.43518722 2146.40515796 711.78982672 2148.04597025 710.14038086 2149.72784424 C707.15165749 2152.76379348 704.02331607 2155.57293083 700.79663086 2158.35284424 C698.44075128 2160.40143517 696.13530626 2162.49987425 693.82788086 2164.60284424 C689.45887403 2168.55033892 684.94045244 2172.27209014 680.36303711 2175.97393799 C677.69900733 2178.17931127 675.13249644 2180.45960734 672.57788086 2182.79034424 C667.76559397 2187.16446372 662.75954591 2191.22026931 657.64038086 2195.22784424 C656.10124023 2196.44214111 656.10124023 2196.44214111 654.53100586 2197.68096924 C651.57391535 2200.01325514 648.61016925 2202.33692796 645.64428711 2204.65802002 C644.25521334 2205.7461955 642.86726894 2206.83581358 641.48022461 2207.92657471 C632.26359452 2215.17365102 622.99124638 2222.27775414 613.38452148 2229.00030518 C611.63265437 2230.2332822 609.89329077 2231.48223357 608.15600586 2232.73565674 C586.29038578 2248.44396403 563.73059447 2263.38562533 540.64038086 2277.22784424 C539.78041504 2277.7457251 538.92044922 2278.26360596 538.03442383 2278.79718018 C515.203243 2292.52002223 491.92578309 2305.3458725 468.18774414 2317.42266846 C465.88768543 2318.59311816 463.58908812 2319.76644587 461.29223633 2320.94317627 C444.33238503 2329.6257027 427.1252762 2337.66357068 409.64038086 2345.22784424 C408.96511353 2345.52046143 408.28984619 2345.81307861 407.59411621 2346.11456299 C371.34800241 2361.79681486 334.24891115 2375.19886129 296.64038086 2387.22784424 C295.96116577 2387.44529297 295.28195068 2387.6627417 294.58215332 2387.88677979 C207.27361616 2415.76204895 116.22207263 2432.5322249 -14.35961914 2443.22784424 C-15.31580139 2443.28949768 -16.27198364 2443.35115112 -17.25714111 2443.41467285 C-70.95632901 2446.81730767 -125.67636788 2447.00298741 -179.35961914 2443.22784424 C-180.29821777 2443.16232361 -181.23681641 2443.09680298 -182.20385742 2443.02929688 C-271.55415766 2436.72084609 -360.49427155 2421.89819392 -475.35961914 2387.22784424 C-476.11462708 2386.98634644 -476.86963501 2386.74484863 -477.64752197 2386.49603271 C-554.86488513 2361.78764258 -630.22365467 2329.13160373 -700.5925293 2288.80841064 C-703.24183721 2287.29512148 -705.89869807 2285.79621109 -708.55883789 2284.30206299 C-736.20315115 2268.73003241 -763.35635007 2251.88614931 -789.32836914 2233.65118408 C-791.58330889 2232.0711001 -793.846172 2230.50274652 -796.10961914 2228.93487549 C-807.67998581 2220.90236877 -819.06617552 2212.64435391 -830.35961914 2204.22784424 C-831.07134277 2203.69916748 -831.78306641 2203.17049072 -832.51635742 2202.62579346 C-850.38212625 2189.35229675 -867.83759835 2175.55234431 -884.77563477 2161.11065674 C-888.11754002 2158.2640027 -891.50379638 2155.48203572 -894.92211914 2152.72784424 C-899.99569407 2148.60094218 -904.79703056 2144.22681866 -909.59008789 2139.78253174 C-911.81880307 2137.72670702 -914.06729833 2135.71167467 -916.35961914 2133.72784424 C-920.6665933 2129.98921306 -924.86362847 2126.13345771 -929.05444336 2122.26593018 C-931.01347018 2120.46061959 -932.98155465 2118.6687847 -934.96289062 2116.88775635 C-945.82293283 2107.04886656 -956.11545437 2096.6243158 -966.46362305 2086.25421143 C-969.19995859 2083.51214362 -971.94081096 2080.77464129 -974.68298912 2078.03841782 C-976.82281436 2075.90222762 -978.96022599 2073.76363513 -981.0969429 2071.62433624 C-982.10637002 2070.61424985 -983.11651869 2069.60488393 -984.12745285 2068.59630585 C-989.20939511 2063.52362881 -994.20259917 2058.43027261 -998.86367798 2052.96533203 C-1001.5944037 2049.79368148 -1004.48966582 2046.77304672 -1007.35961914 2043.72784424 C-1012.12618452 2038.64180564 -1016.83384475 2033.53057561 -1021.35961914 2028.22784424 C-1022.25777564 2027.18333172 -1023.15624348 2026.13908686 -1024.05493164 2025.09503174 C-1026.64998623 2022.07753623 -1029.23755009 2019.05372321 -1031.82202148 2016.02716064 C-1032.813413 2014.86702164 -1033.80584818 2013.70777329 -1034.79956055 2012.54962158 C-1040.38958602 2006.03413416 -1045.83200187 1999.43269661 -1051.10302734 1992.65606689 C-1054.0167304 1988.91550908 -1056.98495664 1985.22740739 -1059.99682617 1981.56549072 C-1072.80249295 1965.98196737 -1084.66750269 1949.65683541 -1096.35961914 1933.22784424 C-1096.77442535 1932.64622528 -1097.18923157 1932.06460632 -1097.61660767 1931.46536255 C-1105.32052329 1920.65320776 -1112.82089385 1909.72001082 -1120.17211914 1898.66534424 C-1120.69086609 1897.88614624 -1121.20961304 1897.10694824 -1121.74407959 1896.30413818 C-1135.07165114 1876.26862616 -1147.73739629 1855.91438672 -1159.73364258 1835.05059814 C-1161.2484878 1832.42077224 -1162.77485927 1829.79804903 -1164.30493164 1827.17706299 C-1202.42806971 1761.574632 -1233.51120268 1691.60949092 -1260.35961914 1613.22784424 C-1260.61958679 1612.46232239 -1260.87955444 1611.69680054 -1261.1473999 1610.90808105 C-1293.2074623 1516.30489838 -1313.4696759 1417.84535182 -1324.52758789 1245.50909424 C-1324.53082232 1243.59132872 -1324.53418778 1241.67356342 -1324.53767395 1239.75579834 C-1324.5435989 1235.76258781 -1324.54552108 1231.76939868 -1324.54492188 1227.77618408 C-1324.54484118 1223.77255683 -1324.55170549 1219.76904539 -1324.56542969 1215.76544189 C-1324.65389565 1189.51734089 -1324.12991374 1163.41927671 -1322.35961914 1137.22784424 C-1322.28391693 1136.09993469 -1322.20821472 1134.97202515 -1322.13021851 1133.80993652 C-1321.69247185 1127.46345585 -1321.17883116 1121.12629312 -1320.60961914 1114.79034424 C-1320.48606552 1113.39119278 -1320.48606552 1113.39119278 -1320.36001587 1111.96377563 C-1312.71868467 1026.18940837 -1295.81055677 941.48149473 -1270.35961914 859.22784424 C-1270.12025635 858.45237244 -1269.88089355 857.67690063 -1269.63427734 856.87792969 C-1249.63030787 792.19989415 -1223.84731781 729.47933052 -1193.29711914 669.07940674 C-1191.87832014 666.27258847 -1190.48856507 663.45288797 -1189.10961914 660.62628174 C-1183.64494436 649.47349857 -1177.73720865 638.64164254 -1171.56665039 627.86456299 C-1169.11673542 623.58175405 -1166.73885367 619.26673053 -1164.39746094 614.92388916 C-1152.55301929 593.00212919 -1139.12940551 571.97834447 -1125.35961914 551.22784424 C-1124.02622322 549.20835431 -1122.6928911 547.18882226 -1121.35961914 545.16925049 C-1095.38845114 505.92663756 -1067.39960852 467.77835131 -1036.59594727 432.16534424 C-1033.63536163 428.73812326 -1030.75493487 425.26241396 -1027.92211914 421.72784424 C-1023.32160038 416.05470908 -1018.35070864 410.76164285 -1013.35571289 405.43878174 C-1011.12047181 403.05424939 -1008.93261634 400.64022364 -1006.79711914 398.16534424 C-1000.16504091 390.49131855 -993.266731 383.0134954 -986.01806641 375.91876221 C-984.45463448 374.32471988 -983.02860424 372.67985867 -981.59399414 370.97003174 C-976.18505994 364.75513288 -970.28558795 359.00509131 -964.45361328 353.19146729 C-962.42698934 351.17020156 -960.40576367 349.1436485 -958.38500977 347.11651611 C-946.98569877 335.71193814 -946.98569877 335.71193814 -940.89257812 330.5425415 C-938.76352163 328.71661871 -936.81170281 326.73999202 -934.85961914 324.72784424 C-931.54975216 321.37850695 -928.15214965 318.22858467 -924.57836914 315.16534424 C-922.37570644 313.24189231 -920.22665429 311.26694523 -918.08325195 309.27789307 C-912.89481047 304.4646488 -907.58034462 299.90385273 -902.06274414 295.46612549 C-899.30146089 293.17968719 -896.67423692 290.79176206 -894.04711914 288.35284424 C-889.43611505 284.1091463 -884.63830678 280.2283742 -879.68579102 276.39971924 C-875.71177396 273.31888517 -871.85623374 270.13459779 -868.04711914 266.85284424 C-861.04689292 260.84678414 -853.71214786 255.30165786 -846.35522461 249.74298096 C-844.56767809 248.38581021 -842.79060606 247.01686864 -841.01977539 245.63800049 C-831.96992554 238.59669235 -822.70025241 231.8767786 -813.35961914 225.22784424 C-812.77218933 224.80869751 -812.18475952 224.38955078 -811.57952881 223.95770264 C-800.67581628 216.18473885 -789.63834682 208.63690589 -778.48461914 201.22784424 C-777.69703217 200.70393097 -776.90944519 200.1800177 -776.09799194 199.64022827 C-764.61927456 192.00726398 -753.12923941 184.4075796 -741.35961914 177.22784424 C-740.42746582 176.65840088 -739.4953125 176.08895752 -738.53491211 175.5022583 C-715.87205065 161.69802135 -692.78648978 148.68833723 -669.35961914 136.22784424 C-668.27003906 135.64808838 -667.18045898 135.06833252 -666.05786133 134.4710083 C-593.43973216 95.99907282 -516.09254482 65.17314143 -202.00457764 0.44787598 C-199.42598227 0.23336493 -196.84913475 0.00404792 -194.2722168 -0.22967529 C-130.36396866 -5.94058282 -63.90453142 -5.561864 0 0 Z " fill="#FEFEFE" transform="translate(1325.359619140625,3.77215576171875)"/>
</svg>
